PathFileType	4	(X/Y/Z)	F:/Ayumi_testdata/Ayumi_25_09_2024/new_static/static_00.trc																																																																																																																																																																																																				
DataRate	CameraRate	NumFrames	NumMarkers	Units	OrigDataRate	OrigDataStartFrame	OrigNumFrames																																																																																																																																																																																																
200	200	4	66	mm	200	185	295																																																																																																																																																																																																
Frame#	Time	LASI			RASI			RSACR			LSACR			USACR			LBAR			RBAR			RHEE			RMT1			RMT5			RMT2			LHEE			LMT1			LMT5			LMT2			LMMAL			LMFC			LLFC			LLMAL			LTIB4			LTIB2			LTIB3			LTIB1			RMMAL			RMFC			RLFC			RLMAL			RTIB1			RTIB2			RTIB3			RTHI1			RTHI4			RTHI3			RTHI2			LTHI1			LTHI4			LTHI3			LTHI2			FHD			LBHD			RBHD			C7			T10			CLAV			LSHO			RSHO			LRAD			LUL			LRFIN			RRAD			RUL			RUFIN			RLEP			RMEP			LLEP			LMEP			LDUPA			LMUPA			LUUPA			RDUPA			RUUPA			RMUPA			LKJC			RKJC			LAJC			RAJC		
		X1	Y1	Z1	X2	Y2	Z2	X3	Y3	Z3	X4	Y4	Z4	X5	Y5	Z5	X6	Y6	Z6	X7	Y7	Z7	X8	Y8	Z8	X9	Y9	Z9	X10	Y10	Z10	X11	Y11	Z11	X12	Y12	Z12	X13	Y13	Z13	X14	Y14	Z14	X15	Y15	Z15	X16	Y16	Z16	X17	Y17	Z17	X18	Y18	Z18	X19	Y19	Z19	X20	Y20	Z20	X21	Y21	Z21	X22	Y22	Z22	X23	Y23	Z23	X24	Y24	Z24	X25	Y25	Z25	X26	Y26	Z26	X27	Y27	Z27	X28	Y28	Z28	X29	Y29	Z29	X30	Y30	Z30	X31	Y31	Z31	X32	Y32	Z32	X33	Y33	Z33	X34	Y34	Z34	X35	Y35	Z35	X36	Y36	Z36	X37	Y37	Z37	X38	Y38	Z38	X39	Y39	Z39	X40	Y40	Z40	X41	Y41	Z41	X42	Y42	Z42	X43	Y43	Z43	X44	Y44	Z44	X45	Y45	Z45	X46	Y46	Z46	X47	Y47	Z47	X48	Y48	Z48	X49	Y49	Z49	X50	Y50	Z50	X51	Y51	Z51	X52	Y52	Z52	X53	Y53	Z53	X54	Y54	Z54	X55	Y55	Z55	X56	Y56	Z56	X57	Y57	Z57	X58	Y58	Z58	X59	Y59	Z59	X60	Y60	Z60	X61	Y61	Z61	X62	Y62	Z62	X63	Y63	Z63	X64	Y64	Z64	X65	Y65	Z65	X66	Y66	Z66
																																																																																																																																																																																																							
185	0.92	133.7658997	761.8833008	918.2049561	129.4663391	984.4009399	918.8269653	309.1996765	912.2703247	950.0893555	308.1764221	852.4649048	953.3397827	297.5308533	882.2283936	966.4880371	1270.838257	-346.4897461	26.29942703	1226.430298	1876.956665	26.26514626	323.0542297	1019.663147	39.83197021	128.169754	1043.316406	43.45220184	164.9963531	1113.785767	34.99564743	140.1777039	1079.962891	42.70275879	326.2416382	745.164856	45.82681656	134.3842773	736.4428711	46.33873367	169.9643402	662.7833862	33.41601944	143.1598511	698.0317993	45.92530823	276.6765747	778.6743164	72.96264648	232.7654572	828.9661255	456.9519653	219.1890411	721.3288574	453.9885864	278.7886047	700.9711304	69.12701416	290.2594604	691.4228516	209.6086884	313.9087219	691.3891602	270.9068298	263.4251709	684.4694824	268.1540833	301.5992737	687.0111694	314.3218384	275.1663818	994.0737305	68.34384918	235.1951752	935.2756958	446.5410767	220.4490814	1041.157104	461.3106079	284.6632996	1068.588135	72.2552948	257.0155334	1082.650269	319.2868958	307.4438782	1077.117676	314.0291443	276.504425	1081.277954	256.1667175	241.5638123	1059.932495	783.8225098	242.6608582	1064.460083	635.1203613	191.2639008	1066.43811	636.9967651	218.9712372	1070.013428	696.9830933	238.4627533	698.5678711	778.8921509	236.3996582	694.9329224	646.5683594	185.6760864	693.0296631	637.4942627	200.102356	689.1380005	701.2209473	130.7795563	775.8502197	1593.144775	241.5447235	786.8583374	1576.050415	253.0325012	910.3233643	1571.210693	263.1676941	858.1313477	1391.329102	285.5513	877.326355	1007.463989	140.8381348	872.9251709	1328.156128	244.8265991	725.4207764	1380.866699	236.7787018	986.9927979	1396.745605	166.6660461	222.7720795	1359.672607	207.2928467	222.4963837	1355.126099	153.4777832	130.7606812	1339.151245	241.0002441	1500.801636	1389.348389	287.9002686	1499.941895	1383.130981	235.2454987	1590.977295	1391.600586	293.2158203	1271.52063	1329.770386	254.8808441	1272.044434	1296.296387	222.0008392	454.1864319	1300.957275	181.0403442	466.7907104	1278.592285	238.0999298	506.3174438	1354.450928	202.1815033	536.8423462	1372.052002	239.1145935	585.5133667	1362.87915	266.3196106	1205.910767	1382.228516	257.089325	1144.202881	1383.899658	216.0558929	1212.426514	1385.418701	225.9772491	775.1474609	455.4702759	227.8221283	988.2164307	453.9258423	277.732605	739.8227539	71.04483032	279.914856	1031.330933	70.29957581
186	0.925	133.7739563	761.8969116	918.1987915	129.4840546	984.4046021	918.824585	309.220459	912.2615356	950.0890503	308.2055969	852.4649658	953.3493652	297.5480347	882.2254028	966.4789429	1270.837402	-346.4874573	26.29958153	1226.415894	1876.963989	26.29188728	323.056427	1019.640442	39.833004	128.1660767	1043.326416	43.45261002	165.0031738	1113.785034	34.99807739	140.17659	1079.964111	42.70561218	326.2460022	745.1607666	45.82099915	134.3834076	736.4470215	46.33938217	169.9717865	662.7850952	33.41944504	143.1595764	698.0314941	45.92190552	276.6818848	778.6798096	72.95927429	232.7697754	828.9682617	456.9447937	219.1917419	721.3349609	453.9892273	278.7919617	700.9746704	69.13452148	290.2546082	691.4307861	209.6068726	313.8601685	691.3798828	270.958313	263.3690796	684.3943481	268.1306152	301.605896	687.0202637	314.2932434	275.1717224	994.0758667	68.34395599	235.1915588	935.2787476	446.5438538	220.469162	1041.158936	461.3083496	284.6583252	1068.593384	72.25067139	257.0198364	1082.664307	319.2793274	307.4663086	1077.12146	314.0221558	276.5143433	1081.278442	256.1532288	241.573288	1059.936035	783.8217773	242.6878357	1064.477173	635.1096191	191.2760773	1066.471436	636.9902344	218.9873505	1070.019897	696.97229	238.4596252	698.5743408	778.8956909	236.3881226	694.9502563	646.5550537	185.6959076	693.0239258	637.4920044	200.1267548	689.1420288	701.2183838	130.8204346	775.8520508	1593.13916	241.5432892	786.8552246	1576.064697	253.0432281	910.3227539	1571.203735	263.1694031	858.1203003	1391.326416	285.5707092	877.3273926	1007.472351	140.8376617	872.9171143	1328.146851	244.8478241	725.4091187	1380.870361	236.7819672	986.9885254	1396.752075	166.6681519	222.7717438	1359.65979	207.3003387	222.4919891	1355.111572	153.4673767	130.7680359	1339.160645	241.0108032	1500.798462	1389.368164	287.909668	1499.937134	1383.134155	235.2550964	1590.961914	1391.615723	293.2103882	1271.518921	1329.774048	254.8828583	1272.039185	1296.306274	221.9987335	454.1852722	1300.957153	181.0576324	466.7850342	1278.583862	238.1117249	506.3039551	1354.460083	202.1845093	536.8317261	1372.045776	239.1118317	585.5006714	1362.895996	266.3248596	1205.905518	1382.239502	257.0988464	1144.191406	1383.898804	216.0619049	1212.420166	1385.425049	225.9807587	775.1516113	455.4670105	227.8303528	988.2188721	453.9260864	277.7369385	739.8272705	71.04689789	279.9150391	1031.334595	70.2973175
187	0.93	133.7823486	761.9013672	918.1987915	129.5098267	984.4088135	918.8209839	309.2305603	912.260376	950.0947266	308.2133484	852.4503174	953.3580322	297.5683899	882.2141724	966.4862061	1270.82312	-346.5397339	26.29330826	1226.432129	1876.970947	26.27784348	323.0477905	1019.64978	39.83850098	128.1765137	1043.323975	43.44498825	165.072464	1113.672607	34.82706451	140.1798248	1079.963257	42.70563507	326.2381897	745.1578369	45.8260231	134.3856659	736.4449463	46.33902359	169.9639282	662.7893066	33.42081451	143.1677856	698.0316162	45.92017746	276.6880493	778.677063	72.96080017	232.7800446	828.9785156	456.9484863	219.1957703	721.3369141	453.992157	278.7850952	700.9650879	69.11834717	290.2572327	691.4309692	209.6052246	313.9082336	691.4016113	270.9064026	263.3557129	684.4029541	268.1295166	301.6035461	687.0248413	314.2866516	275.1781311	994.0688477	68.34447479	235.2084656	935.2781372	446.5395508	220.4822998	1041.155518	461.3066711	284.6507568	1068.585083	72.24996185	257.0334473	1082.64856	319.2805176	307.4732971	1077.114502	314.0216675	276.51297	1081.282837	256.1520081	241.5948486	1059.937378	783.8232422	242.709137	1064.468872	635.1218262	191.3021851	1066.451172	637.0020142	219.0486908	1070.015625	696.9766846	238.4619751	698.5717773	778.895813	236.3846588	694.9475098	646.5620117	185.6985474	693.0085449	637.5028076	200.1378021	689.1350708	701.2192383	130.815506	775.8492432	1593.145142	241.5324249	786.8553467	1576.054199	253.0391235	910.3210449	1571.19519	263.171814	858.1182861	1391.337646	285.5860596	877.3227539	1007.464905	140.839798	872.9141846	1328.138916	244.8444366	725.4022827	1380.877197	236.7868042	986.9806519	1396.752075	166.6687469	222.7664642	1359.648315	207.2981567	222.4827423	1355.113647	153.4363708	130.6799927	1339.262695	241.0216827	1500.788208	1389.381714	287.9094543	1499.935303	1383.151123	235.2596436	1590.954956	1391.623535	293.20755	1271.511353	1329.775513	254.8923492	1272.032349	1296.310913	222.0053711	454.1797791	1300.9552	181.0629883	466.7752991	1278.579834	238.100235	506.3088074	1354.448608	202.1936035	536.8395996	1372.044922	239.1220703	585.5097656	1362.865356	266.3350525	1205.896362	1382.237427	257.111969	1144.181274	1383.909912	216.1247559	1212.364868	1385.352417	225.987915	775.1577148	455.4703369	227.8453827	988.2167969	453.9230957	277.7365723	739.8210449	71.03957367	279.9144287	1031.326904	70.29721832
188	0.935	133.7955933	761.9024658	918.1992188	129.5214996	984.4122925	918.8231201	309.2492065	912.258667	950.093689	308.2381592	852.4517212	953.3602905	297.5802307	882.215332	966.484375	1270.829956	-346.4705811	26.29312515	1226.42041	1876.973999	26.27877235	323.0525208	1019.642334	39.83709717	128.1682434	1043.324707	43.44688034	165.0031891	1113.794189	34.99560547	140.1722717	1079.961182	42.70799255	326.2414551	745.1549683	45.82201004	134.3908386	736.4454346	46.33403778	169.9555969	662.7884521	33.42948151	143.1672974	698.038147	45.92149734	276.6746521	778.6846313	72.96392822	232.8074951	828.9690552	456.9403992	219.2110138	721.3436279	453.9968872	278.7940063	700.9678955	69.12683105	290.2567444	691.4264526	209.6005707	313.9066162	691.3825073	270.8939819	263.4301453	684.4747925	268.1479187	301.5939941	687.006897	314.3175049	275.1849365	994.0786743	68.34408569	235.223526	935.2865601	446.5377197	220.48909	1041.171021	461.3139648	284.6619568	1068.587646	72.24893951	257.0480957	1082.653564	319.2764282	307.5008545	1077.105591	314.0234375	276.5381775	1081.284058	256.1618652	241.626236	1059.93689	783.8267822	242.7254181	1064.447632	635.1159668	191.3268433	1066.494629	637.003479	219.0361938	1070.032715	696.991333	238.4603119	698.5627441	778.8946533	236.3971405	694.928833	646.572937	185.7078247	693.0134888	637.50354	200.1390076	689.1386108	701.2200928	130.8167725	775.8483276	1593.164185	241.5512695	786.8584595	1576.05127	253.0400696	910.3236694	1571.184937	263.1699219	858.1195068	1391.351318	285.5993347	877.321167	1007.476868	140.8352356	872.9102783	1328.139404	244.8471069	725.3987427	1380.876343	236.7882843	986.9765015	1396.757813	166.6633759	222.7589264	1359.633423	207.2939606	222.4751587	1355.097778	153.4388275	130.7610321	1339.15918	241.0196686	1500.780396	1389.382202	287.9234619	1499.930176	1383.161255	235.271759	1590.947754	1391.628906	293.2169189	1271.502686	1329.784668	254.8748779	1272.03064	1296.328613	222.0153809	454.165802	1300.948853	181.0726929	466.7741699	1278.574341	238.1040497	506.295166	1354.442139	202.1863708	536.8233643	1372.037109	239.1486969	585.4916992	1362.845337	266.3284607	1205.893799	1382.25	257.1245422	1144.171143	1383.911499	216.1344299	1212.350342	1385.36438	226.0092468	775.1563721	455.4686279	227.856308	988.2287598	453.9258423	277.734314	739.8262939	71.04537964	279.9234619	1031.33313	70.29650879
